<?xml version="1.0" encoding="UTF-8"?><svg id="Layer_1" xmlns="http://www.w3.org/2000/svg" viewBox="0 0 1725 1725"><defs><style>.cls-1{fill:#0206a8;}</style></defs><path class="cls-1" d="m1255.3,603.15v-33.47c0-55.22-44.77-99.99-99.99-99.99h-66.03l-33.02-57.19c-27.61-47.82-88.76-64.21-136.58-36.6l-344.74,199.03h575.11l105.25,28.2Z"/><path class="cls-1" d="m805.31,375.91c-47.82-27.61-108.97-11.23-136.58,36.6l-93.78,162.44,234.42-196.7-4.05-2.34Z"/><path class="cls-1" d="m1150.05,574.95v575.11l-28.2,105.25h33.47c55.22,0,99.99-44.77,99.99-99.99v-66.03l57.19-33.02c47.82-27.61,64.21-88.76,36.6-136.58l-199.03-344.74Z"/><path class="cls-1" d="m1349.09,805.31c27.61-47.82,11.23-108.97-36.6-136.58l-162.44-93.78,196.7,234.42,2.34-4.05Z"/><path class="cls-1" d="m469.7,1121.85v33.47c0,55.22,44.77,99.99,99.99,99.99h66.03l33.02,57.19c27.61,47.82,88.76,64.21,136.58,36.6l344.74-199.03h-575.11l-105.25-28.2Z"/><path class="cls-1" d="m919.69,1349.09c47.82,27.61,108.97,11.23,136.58-36.6l93.78-162.44-234.42,196.7,4.05,2.34Z"/><path class="cls-1" d="m603.15,469.7h-33.47c-55.22,0-99.99,44.77-99.99,99.99v66.03l-57.19,33.02c-47.82,27.61-64.21,88.76-36.6,136.58l199.03,344.74v-575.11l28.2-105.25Z"/><path class="cls-1" d="m375.91,919.69c-27.61,47.82-11.23,108.97,36.6,136.58l162.44,93.78-196.7-234.42-2.34,4.05Z"/></svg>